<?xml version="1.0" encoding="utf-8"?>
<!-- Generator: Adobe Illustrator 26.1.0, SVG Export Plug-In . SVG Version: 6.00 Build 0)  -->
<svg version="1.1" id="Camada_1" xmlns="http://www.w3.org/2000/svg" xmlns:xlink="http://www.w3.org/1999/xlink" x="0px" y="0px"
	 viewBox="0 0 639 122" style="enable-background:new 0 0 639 122;" xml:space="preserve">
<style type="text/css">
	.st0{fill:#F5F5F5;}
</style>
<g>
	<path class="st0" d="M182.6,55.5c0.5,0,1.1,0.4,1.7,1.2c2,2.4,4.5,4.4,7.4,5.9c2.9,1.5,5.8,2.2,8.7,2.2c3.2,0,4.7-1.1,4.7-3.2
		c0-1.3-0.6-2.9-1.7-4.5c-1.1-1.7-3.7-5-7.9-10c-5.3-6.3-8.8-11-10.5-14c-2.3-4-3.5-7.9-3.5-11.5c0-5.5,2.2-10,6.6-13.5
		c4.3-3.4,9.7-5.1,16-5.1c4.4,0,8.5,1,12.2,3c1.4,0.8,2.6,1.7,3.6,2.7s1.5,1.9,1.5,2.5c0,0.3-0.1,0.6-0.4,0.9
		c-0.3,0.3-0.6,0.4-0.9,0.4c-0.5,0-1.1-0.5-2-1.4c-1.5-1.5-3.4-2.8-5.7-3.8c-2.4-1-4.6-1.5-6.8-1.5c-1.3,0-2.4,0.3-3.3,1
		c-0.8,0.6-1.3,1.5-1.3,2.5c0,1.2,0.5,2.7,1.6,4.5c1,1.8,2.8,4.1,5.3,7c7.9,9.3,12.8,15.6,14.6,18.9c1.9,3.4,2.8,6.7,2.8,9.9
		c0,2.7-0.7,5.3-2,7.7s-3.2,4.4-5.5,5.9c-4.5,3-9.9,4.4-16.4,4.4c-5.9,0-11.1-1.7-15.6-5.1c-3.2-2.4-4.7-4.2-4.7-5.6
		c0-0.4,0.1-0.7,0.4-1.1C181.9,55.7,182.3,55.5,182.6,55.5z"/>
	<path class="st0" d="M275.5,55v1.3v8.6V66h-24.7v-2.7l0.2-31.4V16.8V6.7V4.9h18.5c7.5,0,13.3,0.4,17.2,1.1s7.2,2,9.8,3.8
		c3.6,2.5,6.3,5.9,8.2,10.3c1.5,3.4,2.2,6.9,2.2,10.6c0,4-0.8,7.8-2.5,11.4c-2,4.4-4.8,7.7-8.5,10s-7.9,3.5-12.7,3.5
		C281.4,55.7,278.8,55.5,275.5,55z M275.5,7.9v3l-0.2,29.9l0.1,11.1c2.1,0.6,4.9,0.9,8.3,0.9c3,0,5.9-0.7,8.6-2s5-3.2,6.9-5.7
		c3.2-4.1,4.8-9,4.8-14.4c0-5.2-1.6-9.9-4.8-14.2c-2.3-3-5.2-5.2-8.8-6.6c-3.6-1.4-8.2-2.1-13.8-2.1L275.5,7.9L275.5,7.9z"/>
	<path class="st0" d="M353.6,24.5c-0.1,1.4-0.1,3-0.1,5v2.7l0.3,30.9l13.7-0.2l9.7-0.1c1.6,0,2.4,0.5,2.4,1.6c0,0.9-0.4,1.4-1.2,1.5
		c-0.2,0-1.3,0.1-3.4,0.1h-45.9v-2.3V48.8l0.2-16L329,5h42.8c1.9,0,3,0,3.3,0.1c0.6,0.2,0.9,0.7,0.9,1.5c0,1-0.6,1.5-1.8,1.5H374
		l-20.2-0.3l-0.2,13.9h4.4l14.1-0.3h3.1c1.1,0,1.9,0.1,2.2,0.3c0.4,0.2,0.5,0.6,0.5,1.3c0,1.2-0.9,1.8-2.7,1.8l-3.2-0.1L353.6,24.5z
		"/>
	<path class="st0" d="M402.1,4.9h21.3c5.6,0,9.7,0.3,12.5,0.9c6.9,1.5,12.5,5.5,16.8,12.3c3.3,5.3,5,11.1,5,17.4
		c0,6.5-1.7,12.4-5.2,17.7c-4.1,6.4-9.6,10.4-16.2,11.9c-1.7,0.4-3.3,0.6-4.6,0.7c-1.3,0.1-4.3,0.1-8.9,0.1h-20.5l0.1-29.5
		L402.1,4.9z M426.8,7.7l-0.2,35.9l0.2,19.4c3.6,0,6.2-0.2,7.8-0.5c1.6-0.3,3.4-0.9,5.4-1.9c4.8-2.3,8.6-6,11.4-11.1
		c2.4-4.4,3.6-9.1,3.6-14.2c0-5.5-1.4-10.6-4.2-15.3c-5-8.3-12.5-12.4-22.4-12.4L426.8,7.7z"/>
</g>
<g>
	<path class="st0" d="M6.8,115.6c-1.6,0-2.9-0.2-3.8-0.6s-1.6-0.9-1.9-1.6c-0.4-0.6-0.6-1.3-0.6-2c0-1,0.3-1.6,0.9-2.1
		c0.6-0.4,1.3-0.6,2.1-0.6c0,1.7,0.4,3,1.1,3.8c0.7,0.9,1.6,1.3,2.7,1.3c1,0,1.8-0.3,2.3-1c0.5-0.6,0.8-1.4,0.8-2.4
		c0-1.1-0.4-2-1.1-2.6c-0.8-0.6-1.9-1.3-3.3-2c-1.8-0.9-3.1-1.8-3.8-2.8s-1.1-2.3-1.1-3.8c0-1.2,0.3-2.2,0.9-3
		c0.6-0.9,1.3-1.5,2.3-2s2.1-0.7,3.3-0.7c1.3,0,2.3,0.2,3.2,0.5c0.8,0.3,1.4,0.8,1.9,1.3s0.6,1.1,0.6,1.7c0,0.7-0.3,1.2-0.8,1.7
		c-0.5,0.4-1.3,0.6-2.4,0.6c0-0.6-0.1-1.3-0.3-1.9s-0.5-1.1-1-1.6c-0.4-0.4-1-0.6-1.6-0.6c-0.8,0-1.4,0.3-1.9,0.8s-0.7,1.2-0.7,2.2
		c0,0.6,0.1,1.1,0.3,1.6s0.7,1,1.3,1.4c0.6,0.5,1.5,1,2.7,1.5c1.8,0.8,3.1,1.8,3.9,2.7s1.1,2.2,1.1,3.8c0,1.3-0.3,2.4-0.9,3.4
		c-0.6,0.9-1.4,1.7-2.5,2.2C9.5,115.4,8.3,115.6,6.8,115.6z"/>
	<path class="st0" d="M23,115.6c-2.3,0-4-0.7-5.1-2.2c-1.1-1.4-1.7-3.5-1.7-6.1c0-2.8,0.6-4.9,1.7-6.4c1.1-1.4,2.7-2.1,4.8-2.1
		c1.9,0,3.4,0.6,4.5,1.8c1.1,1.2,1.7,3,1.7,5.4v1.4h-8.6c0,2.1,0.4,3.6,1,4.5c0.6,1,1.5,1.5,2.7,1.5c0.9,0,1.6-0.2,2.2-0.7
		s1-1.1,1.3-1.8c0.3,0.1,0.5,0.2,0.6,0.5c0.2,0.2,0.2,0.5,0.2,0.8c0,0.5-0.2,1-0.6,1.5s-0.9,0.9-1.7,1.3
		C25.2,115.5,24.2,115.6,23,115.6z M20.3,105.8h4.4c0-1.5-0.2-2.8-0.5-3.7c-0.3-0.9-0.8-1.4-1.5-1.4s-1.3,0.4-1.7,1.3
		S20.4,104.1,20.3,105.8z"/>
	<path class="st0" d="M30.4,115.3v-1.5h0.1c0.6,0,1-0.1,1.4-0.4s0.5-0.8,0.5-1.8v-8.9c0-0.9-0.2-1.4-0.5-1.7
		c-0.3-0.2-0.8-0.4-1.3-0.4h-0.1v-1.5h5.3l0.5,2.9h0.1c0.4-1,0.9-1.8,1.5-2.3s1.4-0.8,2.5-0.8c1,0,1.7,0.2,2.2,0.7
		c0.5,0.4,0.7,1.1,0.7,1.8c0,0.9-0.3,1.5-0.9,1.9c-0.6,0.4-1.4,0.7-2.5,0.7c0-0.8-0.1-1.4-0.2-1.8c-0.2-0.4-0.5-0.6-1-0.6
		c-0.4,0-0.7,0.2-1,0.5s-0.5,0.8-0.6,1.3s-0.3,1.1-0.4,1.7c-0.1,0.6-0.1,1.2-0.1,1.8v4.9c0,0.9,0.2,1.4,0.5,1.7s0.7,0.3,1.2,0.3h0.8
		v1.5C39.1,115.3,30.4,115.3,30.4,115.3z"/>
	<path class="st0" d="M50,115.3l-4.2-13.1c-0.2-0.6-0.4-1-0.7-1.2s-0.7-0.3-1.3-0.3v-1.5h8.1v1.5h-0.8c-0.7,0-1.1,0.3-1.1,1
		c0,0.3,0,0.5,0.1,0.8c0,0.2,0.1,0.5,0.2,0.7l1.7,5.6c0.2,0.7,0.4,1.3,0.5,2s0.3,1.3,0.3,1.8c0.1-0.4,0.2-0.9,0.3-1.5
		s0.3-1.1,0.5-1.7l1.6-5.8c0.1-0.4,0.2-0.7,0.3-1s0.1-0.6,0.1-0.9c0-0.6-0.4-0.9-1.2-0.9h-0.5v-1.5h5.7v1.5h-0.5
		c-0.4,0-0.7,0.1-0.9,0.4s-0.5,0.9-0.8,1.8l-3.8,12.3C53.6,115.3,50,115.3,50,115.3z"/>
	<path class="st0" d="M60,115.3v-1.5h0.3c0.5,0,0.9-0.1,1.3-0.4s0.6-0.8,0.6-1.7v-9c0-0.8-0.2-1.4-0.5-1.6c-0.4-0.3-0.8-0.4-1.3-0.4
		H60v-1.5h6.2v12.5c0,0.9,0.2,1.5,0.6,1.7c0.4,0.3,0.8,0.4,1.3,0.4h0.3v1.5H60z M64.1,96.4c-0.6,0-1.2-0.2-1.6-0.5
		c-0.4-0.3-0.6-0.8-0.6-1.5s0.2-1.2,0.6-1.6c0.4-0.3,1-0.5,1.6-0.5s1.2,0.2,1.6,0.5c0.5,0.3,0.7,0.8,0.7,1.6c0,0.7-0.2,1.2-0.7,1.5
		S64.7,96.4,64.1,96.4z"/>
	<path class="st0" d="M76.6,115.6c-1.3,0-2.4-0.3-3.4-0.8s-1.7-1.4-2.3-2.6c-0.6-1.2-0.8-2.8-0.8-4.8c0-2.2,0.3-3.9,0.9-5.1
		s1.3-2.1,2.3-2.6s2.1-0.8,3.3-0.8c1.8,0,3.1,0.3,4,0.9c0.8,0.6,1.3,1.3,1.3,2.2c0,0.4-0.1,0.8-0.3,1.2c-0.2,0.4-0.5,0.7-1,0.9
		c-0.5,0.2-1.2,0.3-2.2,0.3c0-1-0.1-1.9-0.4-2.7c-0.2-0.8-0.7-1.1-1.3-1.1c-0.5,0-0.9,0.2-1.3,0.6s-0.6,1.1-0.8,2.1
		c-0.2,1-0.3,2.3-0.3,4c0,2,0.3,3.6,0.8,4.6s1.3,1.6,2.4,1.6c0.9,0,1.6-0.2,2.3-0.7s1.1-1.1,1.4-1.8c0.2,0.1,0.4,0.3,0.5,0.5
		s0.2,0.5,0.2,0.8c0,0.5-0.2,1-0.5,1.5s-0.9,0.9-1.6,1.3C78.9,115.5,77.9,115.6,76.6,115.6z M75.8,122.4c-0.3,0-0.6,0-1.1-0.1
		c-0.5,0-0.9-0.1-1.2-0.2v-1.7c0.7,0.2,1.3,0.2,1.8,0.2s0.9-0.1,1.2-0.3c0.3-0.2,0.5-0.6,0.5-1.2s-0.2-1-0.6-1.2s-0.9-0.3-1.4-0.4
		l0.5-2.6H77l-0.3,1.3c0.8,0.1,1.5,0.4,2,0.9s0.8,1.1,0.8,1.9c0,1.1-0.3,1.9-1,2.4C77.8,122.1,76.9,122.4,75.8,122.4z"/>
	<path class="st0" d="M90.7,115.6c-2.1,0-3.8-0.7-5-2.1s-1.8-3.5-1.8-6.3c0-5.6,2.3-8.4,6.9-8.4c2.1,0,3.8,0.7,4.9,2.1
		c1.2,1.4,1.8,3.5,1.8,6.3C97.6,112.8,95.3,115.6,90.7,115.6z M90.7,113.8c1,0,1.7-0.6,2.1-1.7s0.6-2.8,0.6-4.9
		c0-2.2-0.2-3.8-0.6-4.9s-1.1-1.6-2.1-1.6s-1.7,0.5-2.1,1.6S88,105,88,107.2c0,2.1,0.2,3.8,0.6,4.9
		C89.1,113.3,89.8,113.8,90.7,113.8z"/>
	<path class="st0" d="M113.6,115.6c-2.3,0-4-0.7-5.1-2.2c-1.1-1.4-1.7-3.5-1.7-6.1c0-2.8,0.6-4.9,1.7-6.4c1.1-1.4,2.7-2.1,4.8-2.1
		c1.9,0,3.4,0.6,4.5,1.8c1.1,1.2,1.7,3,1.7,5.4v1.4h-8.6c0,2.1,0.4,3.6,1,4.5c0.6,1,1.5,1.5,2.7,1.5c0.9,0,1.6-0.2,2.2-0.7
		s1-1.1,1.3-1.8c0.3,0.1,0.5,0.2,0.6,0.5c0.2,0.2,0.2,0.5,0.2,0.8c0,0.5-0.2,1-0.6,1.5s-0.9,0.9-1.7,1.3
		C115.9,115.5,114.8,115.6,113.6,115.6z M111,105.8h4.4c0-1.5-0.2-2.8-0.5-3.7c-0.3-0.9-0.8-1.4-1.5-1.4s-1.3,0.4-1.7,1.3
		S111,104.1,111,105.8z"/>
	<path class="st0" d="M128.1,115.3v-1.5h0.9c0.4,0,0.8-0.1,1.1-0.3s0.4-0.8,0.4-1.7V97.3c0-0.8-0.1-1.3-0.4-1.6s-0.6-0.3-1-0.3h-1
		v-1.5h8.2c2.5,0,4.3,0.6,5.5,1.6c1.2,1.1,1.8,2.7,1.8,4.7c0,1.3-0.3,2.4-0.8,3.4s-1.4,1.9-2.5,2.5s-2.7,0.9-4.6,0.9h-0.9v4.9
		c0,0.8,0.1,1.3,0.4,1.5c0.3,0.2,0.6,0.3,1.1,0.3h1.4v1.5L128.1,115.3L128.1,115.3z M134.7,105.4h0.7c1.3,0,2.2-0.4,2.8-1.2
		c0.6-0.8,0.9-2.1,0.9-3.9c0-1.6-0.3-2.8-0.8-3.6c-0.5-0.8-1.3-1.2-2.5-1.2h-1.1L134.7,105.4L134.7,105.4z"/>
	<path class="st0" d="M144.6,115.3v-1.5h0.1c0.6,0,1-0.1,1.4-0.4s0.5-0.8,0.5-1.8v-8.9c0-0.9-0.2-1.4-0.5-1.7
		c-0.3-0.2-0.8-0.4-1.3-0.4h-0.1v-1.5h5.3l0.5,2.9h0.1c0.4-1,0.9-1.8,1.5-2.3s1.4-0.8,2.5-0.8c1,0,1.7,0.2,2.2,0.7
		c0.5,0.4,0.7,1.1,0.7,1.8c0,0.9-0.3,1.5-0.9,1.9c-0.6,0.4-1.4,0.7-2.5,0.7c0-0.8-0.1-1.4-0.2-1.8c-0.2-0.4-0.5-0.6-1-0.6
		c-0.4,0-0.7,0.2-1,0.5s-0.5,0.8-0.6,1.3s-0.3,1.1-0.4,1.7c-0.1,0.6-0.1,1.2-0.1,1.8v4.9c0,0.9,0.2,1.4,0.5,1.7s0.7,0.3,1.2,0.3h0.8
		v1.5C153.3,115.3,144.6,115.3,144.6,115.3z"/>
	<path class="st0" d="M165.8,115.6c-2.1,0-3.8-0.7-5-2.1s-1.8-3.5-1.8-6.3c0-5.6,2.3-8.4,6.9-8.4c2.1,0,3.8,0.7,4.9,2.1
		c1.2,1.4,1.8,3.5,1.8,6.3C172.7,112.8,170.4,115.6,165.8,115.6z M165.9,113.8c1,0,1.7-0.6,2.1-1.7s0.6-2.8,0.6-4.9
		c0-2.2-0.2-3.8-0.6-4.9c-0.4-1.1-1.1-1.6-2.1-1.6s-1.7,0.5-2.1,1.6c-0.4,1.1-0.6,2.7-0.6,4.9c0,2.1,0.2,3.8,0.6,4.9
		C164.2,113.3,164.9,113.8,165.9,113.8z"/>
	<path class="st0" d="M181.7,115.6c-1.3,0-2.4-0.3-3.4-0.8s-1.7-1.4-2.3-2.6s-0.8-2.8-0.8-4.8c0-2.2,0.3-3.9,0.9-5.1
		c0.6-1.2,1.3-2.1,2.3-2.6s2.1-0.8,3.3-0.8c1.8,0,3.1,0.3,4,0.9c0.8,0.6,1.3,1.3,1.3,2.2c0,0.4-0.1,0.8-0.3,1.2
		c-0.2,0.4-0.5,0.7-1,0.9c-0.5,0.2-1.2,0.3-2.2,0.3c0-1-0.1-1.9-0.4-2.7c-0.2-0.8-0.7-1.1-1.3-1.1c-0.5,0-0.9,0.2-1.3,0.6
		c-0.4,0.4-0.6,1.1-0.8,2.1s-0.3,2.3-0.3,4c0,2,0.3,3.6,0.8,4.6s1.3,1.6,2.4,1.6c0.9,0,1.6-0.2,2.3-0.7s1.1-1.1,1.4-1.8
		c0.2,0.1,0.4,0.3,0.5,0.5s0.2,0.5,0.2,0.8c0,0.5-0.2,1-0.5,1.5s-0.9,0.9-1.6,1.3C184,115.5,183,115.6,181.7,115.6z"/>
	<path class="st0" d="M195.8,115.6c-2.3,0-4-0.7-5.1-2.2c-1.1-1.4-1.7-3.5-1.7-6.1c0-2.8,0.6-4.9,1.7-6.4c1.1-1.4,2.7-2.1,4.8-2.1
		c1.9,0,3.4,0.6,4.5,1.8c1.1,1.2,1.7,3,1.7,5.4v1.4h-8.6c0,2.1,0.4,3.6,1,4.5c0.6,1,1.5,1.5,2.7,1.5c0.9,0,1.6-0.2,2.2-0.7
		c0.6-0.5,1-1.1,1.3-1.8c0.3,0.1,0.5,0.2,0.6,0.5c0.2,0.2,0.2,0.5,0.2,0.8c0,0.5-0.2,1-0.6,1.5s-0.9,0.9-1.7,1.3
		C198.1,115.5,197,115.6,195.8,115.6z M193.2,105.8h4.4c0-1.5-0.2-2.8-0.5-3.7c-0.3-0.9-0.8-1.4-1.5-1.4s-1.3,0.4-1.7,1.3
		S193.2,104.1,193.2,105.8z"/>
	<path class="st0" d="M208.8,115.6c-1.9,0-3.2-0.3-4.1-0.9c-0.8-0.6-1.2-1.4-1.2-2.4c0-0.8,0.3-1.4,0.8-1.7c0.5-0.3,1.1-0.5,1.6-0.5
		c0,1.2,0.3,2.2,0.8,2.8c0.5,0.7,1.2,1,2.1,1c0.9,0,1.5-0.2,1.9-0.6s0.6-1,0.6-1.6c0-0.7-0.2-1.2-0.7-1.6s-1.3-0.9-2.4-1.3
		c-1.5-0.6-2.6-1.3-3.4-2.1c-0.7-0.7-1.1-1.8-1.1-3.1c0-1.5,0.5-2.7,1.5-3.5s2.4-1.2,4.1-1.2c1.6,0,2.8,0.3,3.5,0.9s1.1,1.2,1.1,2
		c0,0.6-0.2,1.1-0.6,1.4c-0.4,0.3-1,0.5-1.9,0.5c0-1-0.2-1.8-0.7-2.3c-0.4-0.5-1-0.8-1.8-0.8c-0.6,0-1.1,0.2-1.5,0.5
		s-0.6,0.8-0.6,1.4c0,0.5,0.1,0.9,0.3,1.2c0.2,0.3,0.5,0.6,1,0.9s1.1,0.6,2,0.9c1.3,0.5,2.3,1.2,3.1,1.9c0.8,0.7,1.2,1.8,1.2,3.1
		c0,1.6-0.5,2.8-1.5,3.7C212.1,115.2,210.7,115.6,208.8,115.6z"/>
	<path class="st0" d="M221.5,115.6c-1.9,0-3.2-0.3-4.1-0.9c-0.8-0.6-1.2-1.4-1.2-2.4c0-0.8,0.3-1.4,0.8-1.7c0.5-0.3,1.1-0.5,1.6-0.5
		c0,1.2,0.3,2.2,0.8,2.8c0.5,0.7,1.2,1,2.1,1c0.9,0,1.5-0.2,1.9-0.6s0.6-1,0.6-1.6c0-0.7-0.2-1.2-0.7-1.6s-1.3-0.9-2.4-1.3
		c-1.5-0.6-2.6-1.3-3.4-2.1c-0.7-0.7-1.1-1.8-1.1-3.1c0-1.5,0.5-2.7,1.5-3.5s2.4-1.2,4.1-1.2c1.6,0,2.8,0.3,3.5,0.9s1.1,1.2,1.1,2
		c0,0.6-0.2,1.1-0.6,1.4c-0.4,0.3-1,0.5-1.9,0.5c0-1-0.2-1.8-0.7-2.3c-0.4-0.5-1-0.8-1.8-0.8c-0.6,0-1.1,0.2-1.5,0.5
		s-0.6,0.8-0.6,1.4c0,0.5,0.1,0.9,0.3,1.2c0.2,0.3,0.5,0.6,1,0.9s1.1,0.6,2,0.9c1.3,0.5,2.3,1.2,3.1,1.9c0.8,0.7,1.2,1.8,1.2,3.1
		c0,1.6-0.5,2.8-1.5,3.7C224.7,115.2,223.3,115.6,221.5,115.6z"/>
	<path class="st0" d="M233.3,115.6c-1.1,0-2.1-0.4-2.9-1.2c-0.8-0.8-1.2-2-1.2-3.7c0-1.6,0.5-2.8,1.5-3.6c1-0.8,2.4-1.2,4.4-1.3
		l2.2-0.1V104c0-1.1-0.1-2-0.3-2.6s-0.7-0.9-1.4-0.9c-0.6,0-1.1,0.3-1.4,0.9c-0.3,0.6-0.4,1.4-0.4,2.4c-2.3,0-3.5-0.7-3.5-2
		c0-0.7,0.2-1.2,0.7-1.7c0.5-0.4,1.1-0.8,2-1c0.8-0.2,1.7-0.3,2.8-0.3c1.8,0,3.2,0.4,4.1,1.1s1.4,2.1,1.4,4v7.7
		c0,0.8,0.1,1.4,0.3,1.7c0.2,0.3,0.6,0.5,1.2,0.5h0.1v1.5h-5l-0.5-2.2h-0.2c-0.4,0.5-0.7,1-1.1,1.4c-0.4,0.4-0.7,0.6-1.2,0.8
		C234.5,115.5,234,115.6,233.3,115.6z M234.9,113.6c0.7,0,1.3-0.4,1.7-1.1c0.4-0.8,0.7-1.7,0.7-2.9v-2.3l-1.1,0.1
		c-1,0.1-1.7,0.4-2.1,0.9c-0.4,0.6-0.6,1.4-0.6,2.5c0,0.9,0.1,1.6,0.3,2C234,113.4,234.4,113.6,234.9,113.6z"/>
	<path class="st0" d="M244.3,115.3v-1.5h0.2c0.6,0,1-0.1,1.4-0.4c0.3-0.2,0.5-0.8,0.5-1.7v-9.1c0-0.9-0.2-1.4-0.5-1.6
		s-0.8-0.3-1.3-0.3h-0.1v-1.4h5.6l0.4,2.2h0.2c0.4-0.9,0.9-1.6,1.6-2c0.6-0.4,1.5-0.6,2.5-0.6c0.9,0,1.7,0.2,2.4,0.6
		c0.7,0.4,1.1,1.1,1.4,2h0.2c0.4-1,0.9-1.7,1.7-2.1c0.7-0.4,1.5-0.6,2.5-0.6c1.4,0,2.5,0.5,3.2,1.4c0.8,0.9,1.2,2.4,1.2,4.4v7
		c0,0.9,0.1,1.5,0.4,1.8c0.3,0.2,0.7,0.4,1.3,0.4h0.1v1.5h-5.9v-10c0-1.3-0.1-2.3-0.4-3s-0.8-1.1-1.6-1.1c-0.5,0-1,0.2-1.3,0.6
		s-0.6,0.9-0.7,1.6s-0.2,1.4-0.2,2.1v6.1c0,0.9,0.1,1.5,0.4,1.8c0.3,0.2,0.7,0.4,1.3,0.4h0.1v1.5H255v-10c0-1.3-0.1-2.3-0.4-3
		c-0.3-0.7-0.8-1.1-1.6-1.1c-0.6,0-1,0.2-1.3,0.7c-0.3,0.4-0.6,1-0.7,1.7c-0.1,0.7-0.2,1.5-0.2,2.3v5.9c0,0.9,0.2,1.4,0.5,1.6
		s0.8,0.3,1.4,0.3h0.1v1.5L244.3,115.3L244.3,115.3z"/>
	<path class="st0" d="M277.7,115.6c-2.3,0-4-0.7-5.1-2.2c-1.1-1.4-1.7-3.5-1.7-6.1c0-2.8,0.6-4.9,1.7-6.4c1.1-1.4,2.7-2.1,4.8-2.1
		c1.9,0,3.4,0.6,4.5,1.8c1.1,1.2,1.7,3,1.7,5.4v1.4H275c0,2.1,0.4,3.6,1,4.5c0.6,1,1.5,1.5,2.7,1.5c0.9,0,1.6-0.2,2.2-0.7
		s1-1.1,1.3-1.8c0.3,0.1,0.5,0.2,0.6,0.5c0.2,0.2,0.2,0.5,0.2,0.8c0,0.5-0.2,1-0.6,1.5s-0.9,0.9-1.7,1.3
		C280,115.5,278.9,115.6,277.7,115.6z M275.1,105.8h4.4c0-1.5-0.2-2.8-0.5-3.7c-0.3-0.9-0.8-1.4-1.5-1.4s-1.3,0.4-1.7,1.3
		S275.1,104.1,275.1,105.8z"/>
	<path class="st0" d="M285.1,115.3v-1.5h0.1c0.6,0,1.1-0.1,1.4-0.4c0.4-0.2,0.5-0.8,0.5-1.7v-9c0-0.9-0.2-1.4-0.5-1.6
		s-0.8-0.3-1.3-0.3h-0.1v-1.5h5.6l0.3,2.2h0.1c0.4-0.9,1-1.6,1.6-2s1.4-0.6,2.4-0.6c1.4,0,2.4,0.5,3.2,1.4c0.7,0.9,1.1,2.4,1.1,4.4
		v7c0,0.9,0.1,1.5,0.4,1.8c0.3,0.2,0.7,0.4,1.3,0.4h0.1v1.5h-5.9v-10c0-1.3-0.1-2.3-0.4-3s-0.8-1.1-1.5-1.1c-0.6,0-1,0.2-1.4,0.7
		c-0.3,0.5-0.6,1-0.7,1.8c-0.1,0.7-0.2,1.5-0.2,2.3v5.9c0,0.9,0.2,1.4,0.5,1.6s0.8,0.3,1.4,0.3h0.1v1.5h-8.1V115.3z"/>
	<path class="st0" d="M308.6,115.6c-1.3,0-2.2-0.3-3-1c-0.7-0.7-1.1-1.9-1.1-3.7v-9.8h-2v-1.4c0.6,0,1.1-0.2,1.6-0.4
		c0.4-0.2,0.8-0.5,1.1-0.8c0.2-0.3,0.5-0.7,0.7-1.2s0.4-1,0.5-1.7h2.3v3.7h3.3v1.8h-3.3v9.6c0,0.9,0.1,1.6,0.4,2.1
		c0.2,0.4,0.7,0.6,1.3,0.6c0.7,0,1.4-0.1,1.9-0.3v1.9c-0.3,0.1-0.8,0.3-1.4,0.4C310.3,115.6,309.5,115.6,308.6,115.6z"/>
	<path class="st0" d="M320.8,115.6c-2.1,0-3.8-0.7-5-2.1s-1.8-3.5-1.8-6.3c0-5.6,2.3-8.4,6.9-8.4c2.1,0,3.8,0.7,4.9,2.1
		c1.2,1.4,1.8,3.5,1.8,6.3C327.7,112.8,325.4,115.6,320.8,115.6z M320.9,113.8c1,0,1.7-0.6,2.1-1.7s0.6-2.8,0.6-4.9
		c0-2.2-0.2-3.8-0.6-4.9s-1.1-1.6-2.1-1.6s-1.7,0.5-2.1,1.6s-0.6,2.7-0.6,4.9c0,2.1,0.2,3.8,0.6,4.9
		C319.2,113.3,319.9,113.8,320.9,113.8z"/>
	<path class="st0" d="M342.2,115.6c-1.7,0-3-0.7-3.9-2s-1.4-3.4-1.4-6.3s0.5-5,1.4-6.4s2.2-2,3.9-2c1,0,1.8,0.2,2.4,0.7
		c0.6,0.4,1.1,1,1.4,1.7h0.2c0-0.5-0.1-1.1-0.1-1.7s0-1.2,0-1.7V96c0-0.8-0.2-1.4-0.6-1.6s-0.9-0.3-1.5-0.3h-0.2v-1.5h6.4v19.1
		c0,0.9,0.2,1.5,0.5,1.8s0.9,0.4,1.5,0.4h0.2v1.5h-5.3l-0.7-2.4h-0.1c-0.4,0.8-0.9,1.5-1.6,2C344.1,115.4,343.2,115.6,342.2,115.6z
		 M343.4,113.6c1,0,1.7-0.5,2.1-1.6s0.6-2.6,0.6-4.7c0-2-0.2-3.6-0.6-4.7s-1.1-1.6-2.1-1.6c-0.9,0-1.5,0.5-1.8,1.6
		c-0.4,1.1-0.5,2.7-0.5,4.7c0,2.1,0.2,3.6,0.5,4.7S342.5,113.6,343.4,113.6z"/>
	<path class="st0" d="M360.8,115.6c-2.3,0-4-0.7-5.1-2.2c-1.1-1.4-1.7-3.5-1.7-6.1c0-2.8,0.6-4.9,1.7-6.4c1.1-1.4,2.7-2.1,4.8-2.1
		c1.9,0,3.4,0.6,4.5,1.8c1.1,1.2,1.7,3,1.7,5.4v1.4h-8.6c0,2.1,0.4,3.6,1,4.5c0.6,1,1.5,1.5,2.7,1.5c0.9,0,1.6-0.2,2.2-0.7
		s1-1.1,1.3-1.8c0.3,0.1,0.5,0.2,0.6,0.5c0.2,0.2,0.2,0.5,0.2,0.8c0,0.5-0.2,1-0.6,1.5s-0.9,0.9-1.7,1.3
		C363,115.5,362,115.6,360.8,115.6z M358.1,105.8h4.4c0-1.5-0.2-2.8-0.5-3.7c-0.3-0.9-0.8-1.4-1.5-1.4s-1.3,0.4-1.7,1.3
		S358.2,104.1,358.1,105.8z"/>
	<path class="st0" d="M375.2,115.3v-1.5h1c0.4,0,0.8-0.1,1-0.4s0.4-0.7,0.4-1.4V97.3c0-0.8-0.1-1.4-0.4-1.6s-0.6-0.3-1-0.3h-1v-1.5
		h14.6l0.1,5.5H388l0-1.4c-0.1-0.7-0.2-1.3-0.5-1.7c-0.3-0.4-0.7-0.6-1.4-0.6h-4.2v7.6h6.2v1.7h-6.2v8.6h4.9c0.6,0,1.1-0.2,1.4-0.7
		s0.5-1,0.6-1.7l0.2-1.4h1.9l-0.1,5.5H375.2z"/>
	<path class="st0" d="M397.7,115.6c-1.9,0-3.2-0.3-4.1-0.9c-0.8-0.6-1.2-1.4-1.2-2.4c0-0.8,0.3-1.4,0.8-1.7c0.5-0.3,1.1-0.5,1.6-0.5
		c0,1.2,0.3,2.2,0.8,2.8c0.5,0.7,1.2,1,2.1,1s1.5-0.2,1.9-0.6s0.6-1,0.6-1.6c0-0.7-0.2-1.2-0.7-1.6s-1.3-0.9-2.4-1.3
		c-1.5-0.6-2.6-1.3-3.4-2.1c-0.7-0.7-1.1-1.8-1.1-3.1c0-1.5,0.5-2.7,1.5-3.5s2.4-1.2,4.1-1.2c1.6,0,2.8,0.3,3.5,0.9s1.1,1.2,1.1,2
		c0,0.6-0.2,1.1-0.6,1.4s-1,0.5-1.9,0.5c0-1-0.2-1.8-0.7-2.3c-0.4-0.5-1-0.8-1.8-0.8c-0.6,0-1.1,0.2-1.5,0.5s-0.6,0.8-0.6,1.4
		c0,0.5,0.1,0.9,0.3,1.2c0.2,0.3,0.5,0.6,1,0.9s1.1,0.6,2,0.9c1.3,0.5,2.3,1.2,3.1,1.9c0.8,0.7,1.2,1.8,1.2,3.1
		c0,1.6-0.5,2.8-1.5,3.7C400.9,115.2,399.5,115.6,397.7,115.6z"/>
	<path class="st0" d="M412,115.6c-1.3,0-2.4-0.3-3.4-0.8s-1.7-1.4-2.3-2.6c-0.6-1.2-0.8-2.8-0.8-4.8c0-2.2,0.3-3.9,0.9-5.1
		s1.3-2.1,2.3-2.6s2.1-0.8,3.3-0.8c1.8,0,3.1,0.3,4,0.9c0.8,0.6,1.3,1.3,1.3,2.2c0,0.4-0.1,0.8-0.3,1.2c-0.2,0.4-0.5,0.7-1,0.9
		c-0.5,0.2-1.2,0.3-2.2,0.3c0-1-0.1-1.9-0.4-2.7c-0.2-0.8-0.7-1.1-1.3-1.1c-0.5,0-0.9,0.2-1.3,0.6s-0.6,1.1-0.8,2.1
		c-0.2,1-0.3,2.3-0.3,4c0,2,0.3,3.6,0.8,4.6s1.3,1.6,2.4,1.6c0.9,0,1.6-0.2,2.3-0.7s1.1-1.1,1.4-1.8c0.2,0.1,0.4,0.3,0.5,0.5
		s0.2,0.5,0.2,0.8c0,0.5-0.2,1-0.5,1.5s-0.9,0.9-1.6,1.3C414.3,115.5,413.3,115.6,412,115.6z"/>
	<path class="st0" d="M418.6,115.3v-1.5h0.1c0.6,0,1-0.1,1.4-0.4s0.5-0.8,0.5-1.8v-8.9c0-0.9-0.2-1.4-0.5-1.7
		c-0.3-0.2-0.8-0.4-1.3-0.4h-0.1v-1.5h5.3l0.5,2.9h0.1c0.4-1,0.9-1.8,1.5-2.3s1.4-0.8,2.5-0.8c1,0,1.7,0.2,2.2,0.7
		c0.5,0.4,0.7,1.1,0.7,1.8c0,0.9-0.3,1.5-0.9,1.9s-1.4,0.7-2.5,0.7c0-0.8-0.1-1.4-0.2-1.8c-0.2-0.4-0.5-0.6-1-0.6
		c-0.4,0-0.7,0.2-1,0.5s-0.5,0.8-0.6,1.3s-0.3,1.1-0.4,1.7s-0.1,1.2-0.1,1.8v4.9c0,0.9,0.2,1.4,0.5,1.7s0.7,0.3,1.2,0.3h0.8v1.5
		C427.3,115.3,418.6,115.3,418.6,115.3z"/>
	<path class="st0" d="M432.3,115.3v-1.5h0.3c0.5,0,0.9-0.1,1.3-0.4s0.6-0.8,0.6-1.7v-9c0-0.8-0.2-1.4-0.5-1.6
		c-0.4-0.3-0.8-0.4-1.3-0.4h-0.4v-1.5h6.2v12.5c0,0.9,0.2,1.5,0.6,1.7c0.4,0.3,0.8,0.4,1.3,0.4h0.3v1.5H432.3z M436.3,96.4
		c-0.6,0-1.2-0.2-1.6-0.5s-0.6-0.8-0.6-1.5s0.2-1.2,0.6-1.6c0.4-0.3,1-0.5,1.6-0.5s1.2,0.2,1.6,0.5c0.5,0.3,0.7,0.8,0.7,1.6
		c0,0.7-0.2,1.2-0.7,1.5S437,96.4,436.3,96.4z"/>
	<path class="st0" d="M447.7,115.6c-1.3,0-2.2-0.3-3-1c-0.7-0.7-1.1-1.9-1.1-3.7v-9.8h-2v-1.4c0.6,0,1.1-0.2,1.6-0.4
		c0.4-0.2,0.8-0.5,1.1-0.8c0.2-0.3,0.5-0.7,0.7-1.2s0.4-1,0.5-1.7h2.3v3.7h3.3v1.8h-3.3v9.6c0,0.9,0.1,1.6,0.4,2.1
		c0.3,0.4,0.7,0.6,1.3,0.6c0.7,0,1.4-0.1,1.9-0.3v1.9c-0.3,0.1-0.8,0.3-1.4,0.4C449.3,115.6,448.6,115.6,447.7,115.6z"/>
	<path class="st0" d="M458.7,115.6c-1.5,0-2.5-0.5-3.3-1.4s-1.1-2.5-1.1-4.5v-6.9c0-0.9-0.1-1.4-0.4-1.7c-0.3-0.3-0.7-0.4-1.3-0.4
		h-0.1v-1.5h5.9v9.8c0,1.4,0.1,2.5,0.4,3.2s0.8,1.1,1.5,1.1c0.8,0,1.4-0.4,1.8-1.3s0.5-2,0.5-3.4v-5.9c0-0.9-0.2-1.4-0.5-1.6
		s-0.7-0.3-1.3-0.3h-0.1v-1.5h5.9v12.6c0,0.9,0.2,1.4,0.5,1.6s0.7,0.3,1.3,0.3h0.2v1.5h-5.3l-0.6-2.2h-0.1c-0.5,1-1,1.6-1.7,2
		C460.3,115.5,459.5,115.6,458.7,115.6z"/>
	<path class="st0" d="M469.9,115.3v-1.5h0.1c0.6,0,1.1-0.1,1.4-0.4c0.4-0.3,0.5-0.8,0.5-1.8v-8.9c0-0.9-0.2-1.4-0.5-1.7
		c-0.3-0.2-0.8-0.4-1.3-0.4H470v-1.5h5.3l0.5,2.9h0.1c0.4-1,0.9-1.8,1.5-2.3c0.6-0.6,1.4-0.8,2.5-0.8c1,0,1.7,0.2,2.2,0.7
		c0.5,0.4,0.7,1.1,0.7,1.8c0,0.9-0.3,1.5-0.9,1.9s-1.4,0.7-2.5,0.7c0-0.8-0.1-1.4-0.2-1.8c-0.2-0.4-0.5-0.6-1-0.6
		c-0.4,0-0.7,0.2-1,0.5s-0.5,0.8-0.6,1.3s-0.3,1.1-0.4,1.7s-0.1,1.2-0.1,1.8v4.9c0,0.9,0.2,1.4,0.5,1.7c0.3,0.2,0.7,0.3,1.2,0.3h0.8
		v1.5C478.6,115.3,469.9,115.3,469.9,115.3z"/>
	<path class="st0" d="M487.8,115.6c-1.1,0-2.1-0.4-2.9-1.2c-0.8-0.8-1.2-2-1.2-3.7c0-1.6,0.5-2.8,1.5-3.6c1-0.8,2.4-1.2,4.4-1.3
		l2.2-0.1V104c0-1.1-0.1-2-0.3-2.6c-0.2-0.6-0.7-0.9-1.4-0.9c-0.6,0-1.1,0.3-1.4,0.9s-0.4,1.4-0.4,2.4c-2.3,0-3.5-0.7-3.5-2
		c0-0.7,0.2-1.2,0.7-1.7c0.5-0.4,1.1-0.8,2-1c0.8-0.2,1.7-0.3,2.8-0.3c1.8,0,3.2,0.4,4.1,1.1s1.4,2.1,1.4,4v7.7
		c0,0.8,0.1,1.4,0.3,1.7c0.2,0.3,0.6,0.5,1.2,0.5h0.1v1.5h-5l-0.5-2.2h-0.2c-0.4,0.5-0.7,1-1.1,1.4s-0.7,0.6-1.2,0.8
		C489,115.5,488.5,115.6,487.8,115.6z M489.3,113.6c0.7,0,1.3-0.4,1.7-1.1c0.4-0.8,0.7-1.7,0.7-2.9v-2.3l-1.1,0.1
		c-1,0.1-1.7,0.4-2.1,0.9c-0.4,0.6-0.6,1.4-0.6,2.5c0,0.9,0.1,1.6,0.3,2C488.5,113.4,488.8,113.6,489.3,113.6z"/>
	<path class="st0" d="M506,115.6c-1.3,0-2.4-0.3-3.4-0.8s-1.7-1.4-2.3-2.6c-0.6-1.2-0.8-2.8-0.8-4.8c0-2.2,0.3-3.9,0.9-5.1
		s1.3-2.1,2.3-2.6s2.1-0.8,3.3-0.8c1.8,0,3.1,0.3,4,0.9c0.8,0.6,1.3,1.3,1.3,2.2c0,0.4-0.1,0.8-0.3,1.2c-0.2,0.4-0.5,0.7-1,0.9
		s-1.2,0.3-2.2,0.3c0-1-0.1-1.9-0.4-2.7c-0.2-0.8-0.7-1.1-1.3-1.1c-0.5,0-0.9,0.2-1.3,0.6s-0.6,1.1-0.8,2.1s-0.3,2.3-0.3,4
		c0,2,0.3,3.6,0.8,4.6s1.3,1.6,2.4,1.6c0.9,0,1.6-0.2,2.3-0.7s1.1-1.1,1.4-1.8c0.2,0.1,0.4,0.3,0.5,0.5s0.2,0.5,0.2,0.8
		c0,0.5-0.2,1-0.5,1.5s-0.9,0.9-1.6,1.3C508.3,115.5,507.3,115.6,506,115.6z M505.2,122.4c-0.3,0-0.6,0-1.1-0.1s-0.9-0.1-1.2-0.2
		v-1.7c0.7,0.2,1.3,0.2,1.8,0.2s0.9-0.1,1.2-0.3s0.5-0.6,0.5-1.2s-0.2-1-0.6-1.2s-0.8-0.3-1.4-0.4l0.5-2.6h1.5l-0.3,1.3
		c0.8,0.1,1.5,0.4,2,0.9s0.8,1.1,0.8,1.9c0,1.1-0.3,1.9-1,2.4C507.2,122.1,506.3,122.4,505.2,122.4z"/>
	<path class="st0" d="M517.4,115.6c-1.1,0-2.1-0.4-2.9-1.2c-0.8-0.8-1.2-2-1.2-3.7c0-1.6,0.5-2.8,1.5-3.6c1-0.8,2.4-1.2,4.4-1.3
		l2.2-0.1V104c0-1.1-0.1-2-0.3-2.6s-0.7-0.9-1.4-0.9c-0.6,0-1.1,0.3-1.4,0.9c-0.3,0.6-0.4,1.4-0.4,2.4c-2.3,0-3.5-0.7-3.5-2
		c0-0.7,0.2-1.2,0.7-1.7c0.5-0.4,1.1-0.8,2-1c0.8-0.2,1.7-0.3,2.8-0.3c1.8,0,3.2,0.4,4.1,1.1s1.4,2.1,1.4,4v7.7
		c0,0.8,0.1,1.4,0.3,1.7c0.2,0.3,0.6,0.5,1.2,0.5h0.1v1.5h-5l-0.5-2.2h-0.2c-0.4,0.5-0.7,1-1.1,1.4s-0.7,0.6-1.2,0.8
		C518.6,115.5,518,115.6,517.4,115.6z M521.9,97.2c-0.5,0-0.9-0.1-1.2-0.3c-0.4-0.2-0.7-0.4-1-0.7c-0.3-0.3-0.6-0.5-0.9-0.7
		c-0.3-0.2-0.6-0.3-0.9-0.3c-0.4,0-0.7,0.2-0.9,0.5s-0.4,0.7-0.4,1.1h-1.7c0-0.8,0.2-1.5,0.5-2.1s0.7-1.2,1.2-1.5
		c0.5-0.4,1-0.6,1.7-0.6c0.6,0,1.2,0.2,1.6,0.5c0.5,0.3,0.9,0.6,1.3,0.9c0.4,0.3,0.8,0.5,1.2,0.5c0.3,0,0.6-0.2,0.9-0.5
		c0.2-0.3,0.4-0.7,0.4-1.1h1.7c0,0.8-0.2,1.5-0.5,2.1s-0.7,1.1-1.2,1.5C523.1,97,522.6,97.2,521.9,97.2z M518.9,113.6
		c0.7,0,1.3-0.4,1.7-1.1c0.4-0.8,0.7-1.7,0.7-2.9v-2.3l-1.1,0.1c-1,0.1-1.7,0.4-2.1,0.9c-0.4,0.6-0.6,1.4-0.6,2.5
		c0,0.9,0.1,1.6,0.3,2C518,113.4,518.4,113.6,518.9,113.6z"/>
	<path class="st0" d="M535.9,115.6c-2.1,0-3.8-0.7-5-2.1s-1.8-3.5-1.8-6.3c0-5.6,2.3-8.4,6.9-8.4c2.1,0,3.8,0.7,5,2.1
		s1.8,3.5,1.8,6.3C542.7,112.8,540.4,115.6,535.9,115.6z M535.9,113.8c1,0,1.7-0.6,2.1-1.7c0.4-1.1,0.6-2.8,0.6-4.9
		c0-2.2-0.2-3.8-0.6-4.9c-0.4-1.1-1.1-1.6-2.1-1.6s-1.7,0.5-2.1,1.6c-0.4,1.1-0.6,2.7-0.6,4.9c0,2.1,0.2,3.8,0.6,4.9
		C534.2,113.3,534.9,113.8,535.9,113.8z"/>
	<path class="st0" d="M551.5,115.3v-1.5h1.1c0.4,0,0.7-0.1,1-0.4c0.2-0.3,0.4-0.8,0.4-1.5V97.3c0-0.8-0.1-1.3-0.4-1.5
		c-0.3-0.2-0.6-0.4-1.1-0.4h-1v-1.5h8.7c2.9,0,5.2,0.9,6.8,2.7c1.7,1.8,2.5,4.4,2.5,7.8c0,2.2-0.4,4.1-1.1,5.8s-1.7,3-3.1,3.9
		c-1.4,0.9-3.1,1.4-5.1,1.4h-8.7V115.3z M558.1,113.6h1.4c1.8,0,3.1-0.8,4-2.5c0.9-1.6,1.4-3.9,1.4-6.8s-0.5-5.1-1.4-6.5
		s-2.2-2.2-4-2.2h-1.4V113.6z"/>
	<path class="st0" d="M571.3,115.3v-1.5h0.3c0.5,0,0.9-0.1,1.3-0.4c0.4-0.3,0.6-0.8,0.6-1.7v-9c0-0.8-0.2-1.4-0.5-1.6
		c-0.4-0.3-0.8-0.4-1.3-0.4h-0.4v-1.5h6.2v12.5c0,0.9,0.2,1.5,0.6,1.7c0.4,0.3,0.8,0.4,1.3,0.4h0.3v1.5H571.3z M575.3,96.4
		c-0.6,0-1.2-0.2-1.6-0.5c-0.4-0.3-0.6-0.8-0.6-1.5s0.2-1.2,0.6-1.6c0.4-0.3,1-0.5,1.6-0.5s1.2,0.2,1.6,0.5c0.5,0.3,0.7,0.8,0.7,1.6
		c0,0.7-0.2,1.2-0.7,1.5S575.9,96.4,575.3,96.4z"/>
	<path class="st0" d="M586.3,122.4c-2.1,0-3.6-0.4-4.6-1.1s-1.5-1.7-1.5-3.1c0-1.1,0.3-1.9,1-2.6c0.7-0.6,1.5-1,2.6-1.1
		c-0.5-0.2-0.9-0.5-1.3-0.9c-0.4-0.4-0.6-0.9-0.6-1.6c0-0.6,0.2-1.2,0.7-1.7s1-0.9,1.7-1.4c-0.8-0.3-1.5-0.9-2-1.7s-0.8-1.8-0.8-2.9
		c0-1.8,0.5-3.1,1.4-4.1s2.3-1.5,4.3-1.5c0.7,0,1.2,0.1,1.8,0.2c0.5,0.2,1,0.4,1.4,0.7c0.4-0.4,0.8-0.8,1.3-1.2
		c0.4-0.3,1-0.5,1.6-0.5s1,0.2,1.3,0.5s0.5,0.7,0.5,1.2c0,0.4-0.1,0.8-0.4,1.2c-0.3,0.4-0.7,0.5-1.4,0.5c0-0.4-0.1-0.7-0.3-0.9
		s-0.4-0.3-0.6-0.3c-0.2,0-0.4,0-0.5,0.1c-0.2,0.1-0.3,0.1-0.4,0.2c0.4,0.4,0.7,0.9,1,1.5s0.4,1.3,0.4,2.2c0,1.6-0.4,2.8-1.3,3.8
		c-0.9,1-2.3,1.5-4.2,1.5c-0.2,0-0.5,0-0.8,0s-0.6,0-0.7-0.1c-0.2,0.1-0.4,0.4-0.6,0.6s-0.3,0.6-0.3,1s0.1,0.7,0.4,0.9
		s0.6,0.3,0.9,0.3h3.1c1.8,0,3,0.4,3.9,1.2s1.2,1.9,1.2,3.3c0,1.8-0.6,3.2-1.9,4.2C590.8,121.9,588.9,122.4,586.3,122.4z
		 M586.3,120.7c1.5,0,2.6-0.3,3.3-0.8c0.7-0.6,1.1-1.3,1.1-2.3c0-1.3-0.7-1.9-2.1-1.9h-3.1c-0.3,0-0.7,0.1-1,0.2s-0.6,0.4-0.9,0.8
		c-0.2,0.4-0.4,0.9-0.4,1.5c0,0.8,0.3,1.5,0.8,1.9C584.6,120.5,585.4,120.7,586.3,120.7z M586.8,108c0.8,0,1.3-0.3,1.6-1
		c0.3-0.6,0.4-1.5,0.4-2.6c0-1.2-0.1-2.1-0.4-2.8c-0.3-0.7-0.8-1-1.5-1s-1.3,0.4-1.5,1c-0.3,0.7-0.4,1.6-0.4,2.8
		c0,1.1,0.1,2,0.4,2.6C585.6,107.7,586.1,108,586.8,108z"/>
	<path class="st0" d="M595.2,115.3v-1.5h0.3c0.5,0,0.9-0.1,1.3-0.4c0.4-0.3,0.6-0.8,0.6-1.7v-9c0-0.8-0.2-1.4-0.5-1.6
		c-0.4-0.3-0.8-0.4-1.3-0.4h-0.4v-1.5h6.2v12.5c0,0.9,0.2,1.5,0.6,1.7c0.4,0.3,0.8,0.4,1.3,0.4h0.3v1.5H595.2z M599.2,96.4
		c-0.6,0-1.2-0.2-1.6-0.5c-0.4-0.3-0.6-0.8-0.6-1.5s0.2-1.2,0.6-1.6c0.4-0.3,1-0.5,1.6-0.5s1.2,0.2,1.6,0.5c0.5,0.3,0.7,0.8,0.7,1.6
		c0,0.7-0.2,1.2-0.7,1.5S599.9,96.4,599.2,96.4z"/>
	<path class="st0" d="M610.6,115.6c-1.3,0-2.2-0.3-3-1c-0.7-0.7-1.1-1.9-1.1-3.7v-9.8h-2v-1.4c0.6,0,1.1-0.2,1.6-0.4
		c0.4-0.2,0.8-0.5,1.1-0.8c0.2-0.3,0.5-0.7,0.7-1.2s0.4-1,0.5-1.7h2.3v3.7h3.3v1.8h-3.3v9.6c0,0.9,0.1,1.6,0.4,2.1
		c0.3,0.4,0.7,0.6,1.3,0.6c0.7,0,1.4-0.1,1.9-0.3v1.9c-0.3,0.1-0.8,0.3-1.4,0.4C612.2,115.6,611.5,115.6,610.6,115.6z"/>
	<path class="st0" d="M620,115.6c-1.1,0-2.1-0.4-2.9-1.2c-0.8-0.8-1.2-2-1.2-3.7c0-1.6,0.5-2.8,1.5-3.6c1-0.8,2.4-1.2,4.4-1.3
		l2.2-0.1V104c0-1.1-0.1-2-0.3-2.6s-0.7-0.9-1.4-0.9c-0.6,0-1.1,0.3-1.4,0.9c-0.3,0.6-0.4,1.4-0.4,2.4c-2.3,0-3.5-0.7-3.5-2
		c0-0.7,0.2-1.2,0.7-1.7c0.5-0.4,1.1-0.8,2-1c0.8-0.2,1.7-0.3,2.8-0.3c1.8,0,3.2,0.4,4.1,1.1s1.4,2.1,1.4,4v7.7
		c0,0.8,0.1,1.4,0.3,1.7c0.2,0.3,0.6,0.5,1.2,0.5h0.1v1.5h-5l-0.5-2.2h-0.2c-0.4,0.5-0.7,1-1.1,1.4s-0.7,0.6-1.2,0.8
		C621.2,115.5,620.7,115.6,620,115.6z M621.5,113.6c0.7,0,1.3-0.4,1.7-1.1c0.4-0.8,0.7-1.7,0.7-2.9v-2.3l-1.1,0.1
		c-1,0.1-1.7,0.4-2.1,0.9c-0.4,0.6-0.6,1.4-0.6,2.5c0,0.9,0.1,1.6,0.3,2C620.7,113.4,621,113.6,621.5,113.6z"/>
	<path class="st0" d="M631,115.3v-1.5h0.3c0.5,0,0.9-0.1,1.2-0.4c0.4-0.3,0.6-0.8,0.6-1.7V95.9c0-0.5-0.1-0.9-0.3-1.2
		c-0.2-0.3-0.4-0.5-0.7-0.5s-0.5-0.1-0.8-0.1H631v-1.5h6.2v19.2c0,0.9,0.2,1.5,0.5,1.7c0.4,0.3,0.8,0.4,1.3,0.4h0.3v1.5L631,115.3
		L631,115.3z"/>
</g>
</svg>
